<svg xmlns="http://www.w3.org/2000/svg" xmlns:xlink="http://www.w3.org/1999/xlink" version="1.1" width="33.658032953739166" height="33.6580291390419" viewBox="0.5709845721721649 0.5209845006465912 33.658032953739166 33.6580291390419">
  <!-- Exported by Scratch - http://scratch.mit.edu/ -->
  <path id="ID0.8910445864312351" fill="#E5E5E5" stroke="#000000" stroke-width="2" d="M 17.4 1.85 C 21.676 1.85 25.551 3.587 28.357 6.393 C 31.163 9.199 32.9 13.074 32.9 17.35 C 32.9 21.626 31.163 25.501 28.357 28.307 C 25.551 31.113 21.676 32.85 17.4 32.85 C 13.124 32.85 9.249 31.113 6.443 28.307 C 3.637 25.501 1.9 21.626 1.9 17.35 C 1.9 13.074 3.637 9.199 6.443 6.393 C 9.249 3.587 13.124 1.85 17.4 1.85 Z "/>
  <g id="ID0.7382280109450221">
    <path id="ID0.5866679809987545" fill="none" stroke="#000000" stroke-width="2.6580310463905334" stroke-linecap="round" d="M 10.1679 10.2547 L 24.8313 24.7409 "/>
    <path id="ID0.4844203651882708" fill="none" stroke="#000000" stroke-width="2.6580310463905334" stroke-linecap="round" d="M 10.1679 24.5194 L 24.6984 10.6977 "/>
  </g>
</svg>